<svg id="Gruppe_113" data-name="Gruppe 113" xmlns="http://www.w3.org/2000/svg" width="99.703" height="140.731" viewBox="0 0 99.703 140.731">
  <path id="polygon2989" d="M124.423,213.694l-40.717-11.3L74.633,100.62h99.7l-9.083,101.755Z" transform="translate(-74.633 -72.963)" fill="#264de4"/>
  <path id="polygon2991" d="M288.992,217.848l7.762-86.954H256v96.1Z" transform="translate(-206.149 -94.916)" fill="#2965f1"/>
  <path id="polygon2993" d="M150.31,268.217l1.119,12.482H179.36V268.217Z" transform="translate(-129.509 -194.494)" fill="#ebebeb"/>
  <path id="polygon2995" d="M142.132,176.305l1.135,12.482H173.43V176.305h-31.3Z" transform="translate(-123.579 -127.845)" fill="#ebebeb"/>
  <path id="polygon2997" d="M183.783,350.027l-.055.015-13.9-3.754-.889-9.955h-12.53l1.749,19.6,25.568,7.1.057-.016Z" transform="translate(-133.932 -243.887)" fill="#ebebeb"/>
  <path id="path2999" d="M160,0h15.118V6.322h-8.8v6.322h8.8v6.322H160Z" transform="translate(-136.536)"/>
  <path id="path3001" d="M226,0h15.118V5.5h-8.8V6.6h8.8V19.241H226V13.468h8.8v-1.1H226Z" transform="translate(-184.395)"/>
  <path id="path3003" d="M292,0h15.118V5.5h-8.8V6.6h8.8V19.241H292V13.468h8.8v-1.1H292Z" transform="translate(-232.253)"/>
  <path id="polygon3005" d="M284.857,201.568l2.253-25.263H255.843v12.482h17.588L272.3,201.568H255.843V214.05h15.37l-1.449,16.188L255.843,234v12.986l25.588-7.092.188-2.109,2.933-32.86Z" transform="translate(-206.035 -127.845)" fill="#fff"/>
</svg>
