<svg xmlns="http://www.w3.org/2000/svg" width="99.703" height="140.731" viewBox="0 0 99.703 140.731">
  <g id="Gruppe_112" data-name="Gruppe 112" transform="translate(0)">
    <path id="polygon3028" d="M174.336,100.62l-9.083,101.755-40.829,11.319-40.717-11.3L74.633,100.62Z" transform="translate(-74.633 -72.963)" fill="#e44d26"/>
    <path id="polygon3030" d="M256,226.995l32.992-9.147,7.762-86.954H256Z" transform="translate(-206.149 -94.916)" fill="#f16529"/>
    <path id="polygon3032" d="M155.773,188.787H173.43V176.3h-31.3l.3,3.349,3.068,34.4H173.43V201.568H156.914Z" transform="translate(-123.579 -127.845)" fill="#ebebeb"/>
    <path id="polygon3034" d="M168.939,336.333h-12.53l1.749,19.6,25.568,7.1.057-.016V350.027l-.055.015-13.9-3.754Z" transform="translate(-133.932 -243.887)" fill="#ebebeb"/>
    <path id="path3036" d="M108.382,0h6.343V6.267h5.8V0h6.343V18.978h-6.343V12.623h-5.8v6.355h-6.343V0Z" transform="translate(-99.106)"/>
    <path id="path3038" d="M191.262,6.293h-5.584V0h17.514V6.293h-5.587V18.978h-6.343V6.293Z" transform="translate(-155.156)"/>
    <path id="path3040" d="M259.511,0h6.614l4.069,6.668L274.258,0h6.617V18.978h-6.317V9.571l-4.364,6.748h-.109l-4.367-6.748v9.406h-6.206Z" transform="translate(-208.694)"/>
    <path id="path3042" d="M348.72,0h6.345V12.7h8.92v6.273H348.72Z" transform="translate(-273.383)"/>
    <path id="polygon3044" d="M255.843,280.7h15.37l-1.449,16.188-13.921,3.757V313.63l25.588-7.092.188-2.109,2.933-32.86.3-3.352H255.843Z" transform="translate(-206.035 -194.494)" fill="#fff"/>
    <path id="polygon3046" d="M255.843,188.756v.031h30.149l.25-2.806.569-6.328.3-3.349H255.843v12.451Z" transform="translate(-206.035 -127.845)" fill="#fff"/>
  </g>
</svg>
